<svg data-v-0dd9719b="" version="1.0" xmlns="http://www.w3.org/2000/svg" xmlns:xlink="http://www.w3.org/1999/xlink" width="100%" height="100%" viewBox="0 0 340.000000 250.000000" preserveAspectRatio="xMidYMid meet" color-interpolation-filters="sRGB" style="margin: auto;"> <rect data-v-0dd9719b="" x="0" y="0" width="100%" height="100%" fill="#fff" fill-opacity="1" class="background"></rect> <rect data-v-0dd9719b="" x="0" y="0" width="100%" height="100%" fill="url(#watermark)" fill-opacity="1" class="watermarklayer"></rect> <g data-v-0dd9719b="" fill="#333" class="icon-text-wrapper icon-svg-group iconsvg" transform="translate(47.92500305175781,98.84367179870605)"><g class="iconsvg-imagesvg" transform="translate(0,0)"><g><rect fill="#333" fill-opacity="0" stroke-width="2" x="0" y="0" width="60" height="52.312655303195434" class="image-rect"></rect> <svg x="0" y="0" width="60" height="52.312655303195434" filtersec="colorsb5251495320" class="image-svg-svg primary" style="overflow: visible;"><svg xmlns="http://www.w3.org/2000/svg" viewBox="0 0 89.760009765625 78.26000213623047"><g fill-rule="evenodd"><path fill="#a1ddd5" d="M89.76 41.86L65.6 0H46.99l24.17 41.86h18.6zM68.75 41.86L44.58 0h-18.6l24.16 41.86h18.61z"></path><path fill="#feda00" d="M24.17 1.04L0 42.91l9.3 16.11 24.17-41.86-9.3-16.12zM34.68 19.25L10.51 61.1l9.3 16.12 24.17-41.86-9.3-16.11z"></path><path fill="#f05d65" d="M21.62 78.26h48.33l9.31-16.11H30.92l-9.3 16.11zM32.13 60.06h48.33l9.3-16.11H41.43l-9.3 16.11z"></path></g></svg></svg> <!----></g></g> <g transform="translate(67,1.6696414947509766)"><g data-gra="path-name" fill-rule="" class="tp-name iconsvg-namesvg" transform="translate(0,0)"><g transform="scale(1)"><g><path d="M14.98-9.61L20.48-9.61 20.48-7.2Q20.48-6.05 20.16-5L20.16-5Q19.87-4 18.86-2.74L18.86-2.74Q17.89-1.48 16.27-0.43L16.27-0.43Q12.42 2.05 7.16 3.13L7.16 3.13Q4.9 3.67 3.35 1.58L3.35 1.58 3.06 1.26Q1.4-0.4 3.71-0.83L3.71-0.83Q11.38-1.98 13.82-4.68L13.82-4.68Q14.62-5.51 14.8-6.08 14.98-6.66 14.98-7.38L14.98-7.38 14.98-9.61ZM30.46-14.76L30.46-6.19Q30.46-3.85 27.61-3.85 24.77-3.85 24.77-6.19L24.77-6.19 24.77-10.69 11.16-10.69 11.16-5.87Q11.16-3.53 8.46-3.53 5.76-3.53 5.76-5.87L5.76-5.87 5.76-14.76 30.46-14.76ZM10.8-25.63L10.8-24.98Q10.8-24.3 11.48-24.3L11.48-24.3 15.48-24.3 15.48-25.63 10.8-25.63ZM24.88-24.98L24.88-25.63 20.88-25.63 20.88-24.3 24.19-24.3Q24.88-24.3 24.88-24.98L24.88-24.98ZM20.88-21.02L20.88-19.94 34.56-19.94 34.56-18.07Q34.56-15.73 32.22-15.73L32.22-15.73 4-15.73Q1.66-15.73 1.66-18.07L1.66-18.07 1.66-19.94 15.48-19.94 15.48-21.02 8.24-21.02Q5.9-21.02 5.9-23.36L5.9-23.36 5.9-28.91 15.48-28.91 15.48-30.78 20.88-30.78 20.88-28.91 30.06-28.91 30.06-23.36Q30.06-21.02 27.72-21.02L27.72-21.02 20.88-21.02ZM23.83-4.28L24.77-4.03Q30.92-2.16 32.04-1.51L32.04-1.51Q34.16-0.54 32.87 1.58L32.87 1.58Q31.61 3.74 29.56 2.59L29.56 2.59Q29.63 2.63 25.96 1.22L25.96 1.22Q22.32-0.18 21.42-0.4L21.42-0.4Q19.19-1.12 20.38-2.99L20.38-2.99Q21.56-4.9 23.83-4.28L23.83-4.28ZM64.01-15.88L64.01-30.28 69.26-30.28 69.26 0.76Q69.26 3.1 66.64 3.1 64.01 3.1 64.01 0.76L64.01 0.76 64.01-12.02 62.89-11.38Q60.84-10.26 60.41-12.64L60.41-12.64Q60.41-12.67 58.97-16.34L58.97-16.34 58.97-1.26Q58.97 1.08 56.41 1.08 53.86 1.08 53.86-1.26L53.86-1.26 53.86-11.63 52.38-10.91Q50.26-9.9 49.93-12.24L49.93-12.24Q49.72-14.4 49.03-15.48L49.03-15.48Q48.67-6.08 44.93-0.65L44.93-0.65Q43.34 1.62 42.91 2.02L42.91 2.02Q41.08 3.42 39.64 1.58L39.64 1.58 39.31 1.22 38.99 0.9Q37.3-0.72 38.99-2.34L38.99-2.34Q42.16-4.54 43.42-11.52L43.42-11.52 42.34-10.98Q40.21-10.01 39.82-12.35L39.82-12.35Q39.71-13.57 38.38-17.42L38.38-17.42Q37.66-19.62 39.67-20.52L39.67-20.52Q41.72-21.42 42.55-19.19L42.55-19.19Q42.95-18.29 43.85-15.26L43.85-15.26Q43.92-17.5 43.92-18.58L43.92-18.58 43.92-30.17 49.1-30.17 49.1-20.12 51.73-21.31Q52.92-18.54 53.86-15.41L53.86-15.41 53.86-29.38 58.97-29.38 58.97-20.23 61.45-21.53Q62.93-18.72 64.01-15.88L64.01-15.88ZM94.68-12.06L94.68-12.06 89.42-12.06Q88.56-7.06 87.84-3.35L87.84-3.35 93.96-3.35Q94.39-7.85 94.68-12.06ZM99.54-3.35L99.54-3.35 106.31-3.35 106.31-0.5Q106.31 1.84 103.97 1.84L103.97 1.84 76.21 1.84Q73.87 1.84 73.87-0.5L73.87-0.5 73.87-3.35 82.04-3.35Q83.05-8.39 83.66-12.06L83.66-12.06 80.21-12.06Q77.87-12.06 77.87-14.4L77.87-14.4 77.87-17.21 84.49-17.21 85.18-22.43 78.19-22.43Q75.85-22.43 75.85-24.77L75.85-24.77 75.85-27.61 104.08-27.61 104.08-24.77Q104.08-22.43 101.74-22.43L101.74-22.43 91.04-22.43 90.25-17.21 98.32-17.1Q100.66-17.1 100.55-14.76L100.55-14.76Q100.4-11.27 99.54-3.35ZM141.98-28.44L141.98-25.67Q141.98-23.33 139.64-23.33L139.64-23.33 123.26-23.33 123.01-18.29 139.28-18.29 139.18-15.95Q138.78-7.81 138.24-4.1 137.7-0.4 136.62 0.86L136.62 0.86Q135.79 1.87 134.78 2.3L134.78 2.3Q133.81 2.74 132.23 2.95 130.64 3.17 128.41 3.1L128.41 3.1Q126.07 3.02 125.14 0.43L125.14 0.43Q124.2-2.12 126.54-2.05L126.54-2.05 130.1-1.91Q131.26-1.91 131.83-2.41L131.83-2.41Q133.09-3.56 133.6-13.25L133.6-13.25 122.4-13.25Q121.46-7.88 119.09-3.71L119.09-3.71Q116.75 0.43 114.08 1.98L114.08 1.98Q112.18 3.31 110.77 1.4L110.77 1.4 110.48 1.01 110.12 0.61Q108.4-1.01 110.41-2.2L110.41-2.2Q110.92-2.45 113.11-4.9L113.11-4.9Q114.37-6.26 115.85-9.61L115.85-9.61Q116.53-11.09 116.93-13.46L116.93-13.46Q117.32-15.88 117.43-17.71L117.43-17.71 117.72-23.33 112.39-23.33Q110.05-23.33 110.05-25.67L110.05-25.67 110.05-28.44 141.98-28.44ZM145.26-13.5L145.26-16.88 178.81-16.88 178.81-13.5Q178.81-11.16 176.47-11.16L176.47-11.16 147.6-11.16Q145.26-11.16 145.26-13.5L145.26-13.5Z" transform="translate(-1.6600000858306885, 30.780000686645508)"></path></g> <!----> <!----> <!----> <!----> <!----> <!----> <!----></g></g> <g data-gra="path-slogan" fill-rule="" class="tp-slogan iconsvg-slogansvg" fill="#333" transform="translate(25.174442291259766,40.0208740234375)"><!----> <!----> <g transform="scale(1, 1)"><g transform="scale(1)"><path d="M7.31-3.61L4.69-3.61L4.69-4.59L8.44-4.59L8.44 0L7.69 0L7.41-1.08Q6.42 0.09 4.59 0.14L4.59 0.14Q2.86 0.14 1.92-0.75L1.92-0.75Q0.52-2.06 0.56-4.36L0.56-4.36Q0.89-8.63 4.64-8.81L4.64-8.81Q7.83-8.63 8.30-6L8.30-6L7.17-6Q6.70-7.78 4.59-7.83L4.59-7.83Q1.92-7.64 1.78-4.31L1.78-4.31Q1.78-0.75 4.64-0.75L4.64-0.75Q5.67-0.75 6.42-1.31L6.42-1.31Q7.36-2.06 7.31-3.61L7.31-3.61ZM15.89-3.19L15.89-8.58L17.06-8.58L17.06-3.05Q16.92 0.05 13.55 0.14L13.55 0.14Q10.41 0.05 10.27-2.86L10.27-2.86L10.27-8.58L11.44-8.58L11.44-3.19Q11.48-0.84 13.59-0.80L13.59-0.80Q15.89-0.84 15.89-3.19L15.89-3.19ZM19.03-8.58L20.20-8.58L20.20 0L19.03 0L19.03-8.58ZM23.02-1.03L28.31-1.03L28.31 0L21.56 0L21.56-0.94L26.81-7.59L21.94-7.59L21.94-8.58L28.31-8.58L28.31-7.59L23.02-1.03ZM30.61-5.06L35.11-5.06L35.11-8.58L36.28-8.58L36.28 0L35.11 0L35.11-3.98L30.61-3.98L30.61 0L29.44 0L29.44-8.58L30.61-8.58L30.61-5.06ZM44.86-4.27L44.86-4.27Q44.67-7.64 41.86-7.83L41.86-7.83Q39-7.69 38.86-4.27L38.86-4.27Q39-0.94 41.86-0.80L41.86-0.80Q44.67-0.98 44.86-4.27ZM46.03-4.27L46.03-4.27Q45.75 0 41.86 0.14L41.86 0.14Q37.92 0 37.64-4.27L37.64-4.27Q37.88-8.72 41.86-8.81L41.86-8.81Q45.75-8.67 46.03-4.27ZM53.06-3.19L53.06-8.58L54.23-8.58L54.23-3.05Q54.09 0.05 50.72 0.14L50.72 0.14Q47.58 0.05 47.44-2.86L47.44-2.86L47.44-8.58L48.61-8.58L48.61-3.19Q48.66-0.84 50.77-0.80L50.77-0.80Q53.06-0.84 53.06-3.19L53.06-3.19ZM64.13-7.22L60.56-7.22L60.23-4.92Q60.94-5.44 61.83-5.44L61.83-5.44Q64.45-5.20 64.64-2.72L64.64-2.72Q64.45 0.09 61.55 0.14L61.55 0.14Q59.06 0.09 58.83-2.11L58.83-2.11L59.91-2.11Q60.09-0.66 61.73-0.66L61.73-0.66Q63.33-0.80 63.47-2.58L63.47-2.58Q63.38-4.36 61.64-4.45L61.64-4.45Q60.66-4.45 60.05-3.66L60.05-3.66L59.16-3.70L59.77-8.25L64.13-8.25L64.13-7.22ZM70.22-4.08L70.22-4.08Q70.22-7.45 68.44-7.45L68.44-7.45Q66.70-7.45 66.70-4.08L66.70-4.08Q66.70-0.70 68.44-0.70L68.44-0.70Q70.22-0.75 70.22-4.08ZM71.34-4.08L71.34-4.08Q71.25 0.09 68.44 0.14L68.44 0.14Q65.63 0.09 65.53-4.08L65.53-4.08Q65.63-8.39 68.44-8.44L68.44-8.44Q71.20-8.34 71.34-4.08ZM76.88-4.08L76.88-4.08Q76.88-7.45 75.09-7.45L75.09-7.45Q73.36-7.45 73.36-4.08L73.36-4.08Q73.36-0.70 75.09-0.70L75.09-0.70Q76.88-0.75 76.88-4.08ZM78-4.08L78-4.08Q77.91 0.09 75.09 0.14L75.09 0.14Q72.28 0.09 72.19-4.08L72.19-4.08Q72.28-8.39 75.09-8.44L75.09-8.44Q77.86-8.34 78-4.08ZM83.53-4.08L83.53-4.08Q83.53-7.45 81.75-7.45L81.75-7.45Q80.02-7.45 80.02-4.08L80.02-4.08Q80.02-0.70 81.75-0.70L81.75-0.70Q83.53-0.75 83.53-4.08ZM84.66-4.08L84.66-4.08Q84.56 0.09 81.75 0.14L81.75 0.14Q78.94 0.09 78.84-4.08L78.84-4.08Q78.94-8.39 81.75-8.44L81.75-8.44Q84.52-8.34 84.66-4.08ZM90.19-4.08L90.19-4.08Q90.19-7.45 88.41-7.45L88.41-7.45Q86.67-7.45 86.67-4.08L86.67-4.08Q86.67-0.70 88.41-0.70L88.41-0.70Q90.19-0.75 90.19-4.08ZM91.31-4.08L91.31-4.08Q91.22 0.09 88.41 0.14L88.41 0.14Q85.59 0.09 85.50-4.08L85.50-4.08Q85.59-8.39 88.41-8.44L88.41-8.44Q91.17-8.34 91.31-4.08ZM102.89-8.58L99.66-3.47L99.66 0L98.48 0L98.48-3.47L95.25-8.58L96.61-8.58L99.05-4.45L101.53-8.58L102.89-8.58ZM109.59-3.19L109.59-8.58L110.77-8.58L110.77-3.05Q110.63 0.05 107.25 0.14L107.25 0.14Q104.11 0.05 103.97-2.86L103.97-2.86L103.97-8.58L105.14-8.58L105.14-3.19Q105.19-0.84 107.30-0.80L107.30-0.80Q109.59-0.84 109.59-3.19L109.59-3.19ZM118.22 0L117.38-2.48L113.91-2.48L113.02 0L111.84 0L115.08-8.58L116.39-8.58L119.48 0L118.22 0ZM115.64-7.31L114.28-3.52L116.95-3.52L115.69-7.31L115.64-7.31ZM121.92-8.58L126.23-1.64L126.23-8.58L127.36-8.58L127.36 0L126.05 0L121.69-6.94L121.64-6.94L121.64 0L120.52 0L120.52-8.58L121.92-8.58Z" transform="translate(-0.5609879032258065, 8.8125)"></path></g></g></g></g></g><defs v-gra="od"></defs></svg>